<svg width="28" height="28" viewBox="0 0 28 28" fill="none" xmlns="http://www.w3.org/2000/svg">
<path d="M5.24992 14C6.86075 14 8.16659 12.6942 8.16659 11.0834C8.16659 9.47252 6.86075 8.16669 5.24992 8.16669C3.63909 8.16669 2.33325 9.47252 2.33325 11.0834C2.33325 12.6942 3.63909 14 5.24992 14Z" fill="#00ACC1"/>
<path d="M10.5 9.33333C12.1109 9.33333 13.4167 8.0275 13.4167 6.41667C13.4167 4.80584 12.1109 3.5 10.5 3.5C8.88921 3.5 7.58337 4.80584 7.58337 6.41667C7.58337 8.0275 8.88921 9.33333 10.5 9.33333Z" fill="#00ACC1"/>
<path d="M17.5 9.33333C19.1109 9.33333 20.4167 8.0275 20.4167 6.41667C20.4167 4.80584 19.1109 3.5 17.5 3.5C15.8892 3.5 14.5834 4.80584 14.5834 6.41667C14.5834 8.0275 15.8892 9.33333 17.5 9.33333Z" fill="#00ACC1"/>
<path d="M22.7499 14C24.3607 14 25.6666 12.6942 25.6666 11.0834C25.6666 9.47252 24.3607 8.16669 22.7499 8.16669C21.1391 8.16669 19.8333 9.47252 19.8333 11.0834C19.8333 12.6942 21.1391 14 22.7499 14Z" fill="#00ACC1"/>
<path d="M20.2301 17.3367C19.2151 16.1467 18.3634 15.1317 17.3368 13.9417C16.8001 13.3117 16.1118 12.6817 15.2951 12.4017C15.1668 12.355 15.0384 12.32 14.9101 12.2967C14.6184 12.25 14.3034 12.25 14.0001 12.25C13.6968 12.25 13.3818 12.25 13.0784 12.3083C12.9501 12.3317 12.8218 12.3667 12.6934 12.4133C11.8768 12.6933 11.2001 13.3233 10.6518 13.9533C9.63675 15.1433 8.78509 16.1583 7.75842 17.3483C6.23009 18.8767 4.35175 20.5683 4.70175 22.9367C5.04009 24.1267 5.89175 25.305 7.42009 25.6433C8.27175 25.8183 10.9901 25.13 13.8834 25.13H14.0934C16.9868 25.13 19.7051 25.8067 20.5568 25.6433C22.0851 25.305 22.9368 24.115 23.2751 22.9367C23.6368 20.5567 21.7584 18.865 20.2301 17.3367Z" fill="#00ACC1"/>
</svg>
