<svg width="43" height="43" viewBox="0 0 43 43" fill="none" xmlns="http://www.w3.org/2000/svg">
<path d="M8.06217 21.5C10.536 21.5 12.5413 19.4946 12.5413 17.0208C12.5413 14.547 10.536 12.5416 8.06217 12.5416C5.5884 12.5416 3.58301 14.547 3.58301 17.0208C3.58301 19.4946 5.5884 21.5 8.06217 21.5Z" fill="#00ACC1"/>
<path d="M16.1254 14.3333C18.5992 14.3333 20.6046 12.3279 20.6046 9.85417C20.6046 7.38039 18.5992 5.375 16.1254 5.375C13.6516 5.375 11.6462 7.38039 11.6462 9.85417C11.6462 12.3279 13.6516 14.3333 16.1254 14.3333Z" fill="#00ACC1"/>
<path d="M26.8747 14.3333C29.3485 14.3333 31.3538 12.3279 31.3538 9.85417C31.3538 7.38039 29.3485 5.375 26.8747 5.375C24.4009 5.375 22.3955 7.38039 22.3955 9.85417C22.3955 12.3279 24.4009 14.3333 26.8747 14.3333Z" fill="#00ACC1"/>
<path d="M34.9372 21.5C37.411 21.5 39.4163 19.4946 39.4163 17.0208C39.4163 14.547 37.411 12.5416 34.9372 12.5416C32.4634 12.5416 30.458 14.547 30.458 17.0208C30.458 19.4946 32.4634 21.5 34.9372 21.5Z" fill="#00ACC1"/>
<path d="M31.0672 26.6242C29.5085 24.7967 28.2006 23.2379 26.6239 21.4104C25.7997 20.4429 24.7427 19.4754 23.4885 19.0454C23.2914 18.9738 23.0943 18.92 22.8972 18.8842C22.4493 18.8125 21.9656 18.8125 21.4997 18.8125C21.0339 18.8125 20.5502 18.8125 20.0843 18.9021C19.8872 18.9379 19.6902 18.9917 19.4931 19.0633C18.2389 19.4933 17.1997 20.4608 16.3577 21.4283C14.7989 23.2558 13.491 24.8146 11.9143 26.6421C9.56725 28.9892 6.68267 31.5871 7.22017 35.2242C7.73975 37.0517 9.04767 38.8612 11.3947 39.3808C12.7027 39.6496 16.8772 38.5925 21.3206 38.5925H21.6431C26.0864 38.5925 30.261 39.6317 31.5689 39.3808C33.916 38.8612 35.2239 37.0337 35.7435 35.2242C36.2989 31.5692 33.4143 28.9712 31.0672 26.6242Z" fill="#00ACC1"/>
</svg>
