<svg width="117" height="16" viewBox="0 0 117 16" fill="none" xmlns="http://www.w3.org/2000/svg">
<path d="M12.1688 4.93268C12.1688 5.80702 11.9681 6.60969 11.5668 7.34069C11.1654 8.05735 10.5491 8.63785 9.71775 9.08219C8.88642 9.52652 7.85442 9.74869 6.62175 9.74869H4.34275V15.1667H0.666252V0.0736839H6.62175C7.82575 0.0736839 8.84342 0.281517 9.67475 0.697184C10.5061 1.11285 11.1296 1.68618 11.5453 2.41718C11.9609 3.14818 12.1688 3.98668 12.1688 4.93268ZM6.34225 6.82469C7.04459 6.82469 7.56775 6.65985 7.91175 6.33019C8.25575 6.00052 8.42775 5.53469 8.42775 4.93268C8.42775 4.33068 8.25575 3.86485 7.91175 3.53518C7.56775 3.20552 7.04459 3.04068 6.34225 3.04068H4.34275V6.82469H6.34225ZM17.7593 3.01918V6.07219H22.6828V8.91019H17.7593V12.2212H23.3278V15.1667H14.0828V0.0736839H23.3278V3.01918H17.7593ZM36.5721 0.0736839V3.01918H32.5731V15.1667H28.8966V3.01918H24.8976V0.0736839H36.5721ZM59.1862 0.0736839L55.2517 15.1667H50.8012L48.3932 5.23368L45.8992 15.1667H41.4487L37.6217 0.0736839H41.5562L43.7277 11.0602L46.4152 0.0736839H50.4572L53.0372 11.0602L55.2302 0.0736839H59.1862ZM64.7065 0.0736839V15.1667H61.03V0.0736839H64.7065ZM78.2284 0.0736839V3.01918H74.2294V15.1667H70.5529V3.01918H66.5538V0.0736839H78.2284ZM90.931 0.0736839V3.01918H86.932V15.1667H83.2555V3.01918H79.2565V0.0736839H90.931ZM96.4526 3.01918V6.07219H101.376V8.91019H96.4526V12.2212H102.021V15.1667H92.7761V0.0736839H102.021V3.01918H96.4526ZM112.105 15.1667L108.966 9.46919H108.084V15.1667H104.408V0.0736839H110.578C111.768 0.0736839 112.779 0.281517 113.61 0.697184C114.456 1.11285 115.086 1.68618 115.502 2.41718C115.918 3.13385 116.125 3.93652 116.125 4.82518C116.125 5.82852 115.839 6.72435 115.265 7.51269C114.706 8.30102 113.875 8.86002 112.771 9.18969L116.254 15.1667H112.105ZM108.084 6.86769H110.363C111.037 6.86769 111.539 6.70285 111.868 6.37319C112.212 6.04352 112.384 5.57768 112.384 4.97568C112.384 4.40235 112.212 3.95085 111.868 3.62118C111.539 3.29152 111.037 3.12668 110.363 3.12668H108.084V6.86769Z" fill="#00ACC1"/>
</svg>
