<svg width="103" height="103" viewBox="0 0 103 103" fill="none" xmlns="http://www.w3.org/2000/svg">
<g clip-path="url(#clip0_8_259)">
<path d="M19.3124 51.5C25.238 51.5 30.0416 46.6964 30.0416 40.7708C30.0416 34.8452 25.238 30.0416 19.3124 30.0416C13.3869 30.0416 8.58325 34.8452 8.58325 40.7708C8.58325 46.6964 13.3869 51.5 19.3124 51.5Z" fill="white"/>
<path d="M38.6249 34.3333C44.5505 34.3333 49.3541 29.5297 49.3541 23.6042C49.3541 17.6786 44.5505 12.875 38.6249 12.875C32.6994 12.875 27.8958 17.6786 27.8958 23.6042C27.8958 29.5297 32.6994 34.3333 38.6249 34.3333Z" fill="white"/>
<path d="M64.3749 34.3333C70.3005 34.3333 75.1041 29.5297 75.1041 23.6042C75.1041 17.6786 70.3005 12.875 64.3749 12.875C58.4494 12.875 53.6458 17.6786 53.6458 23.6042C53.6458 29.5297 58.4494 34.3333 64.3749 34.3333Z" fill="white"/>
<path d="M83.6874 51.5C89.613 51.5 94.4166 46.6964 94.4166 40.7708C94.4166 34.8452 89.613 30.0416 83.6874 30.0416C77.7619 30.0416 72.9583 34.8452 72.9583 40.7708C72.9583 46.6964 77.7619 51.5 83.6874 51.5Z" fill="white"/>
<path d="M74.4176 63.7742C70.6839 59.3967 67.5509 55.6629 63.7743 51.2854C61.8001 48.9679 59.268 46.6504 56.2639 45.6204C55.7918 45.4488 55.3197 45.32 54.8476 45.2342C53.7747 45.0625 52.6159 45.0625 51.5001 45.0625C50.3843 45.0625 49.2255 45.0625 48.1097 45.2771C47.6376 45.3629 47.1655 45.4917 46.6934 45.6633C43.6893 46.6933 41.2001 49.0108 39.183 51.3283C35.4493 55.7058 32.3164 59.4396 28.5397 63.8171C22.9176 69.4392 16.008 75.6621 17.2955 84.3742C18.5401 88.7517 21.673 93.0863 27.2951 94.3308C30.428 94.9746 40.4276 92.4425 51.0709 92.4425H51.8434C62.4868 92.4425 72.4864 94.9317 75.6193 94.3308C81.2414 93.0863 84.3743 88.7088 85.6189 84.3742C86.9493 75.6192 80.0397 69.3962 74.4176 63.7742Z" fill="white"/>
</g>
<defs>
<clipPath id="clip0_8_259">
<rect width="103" height="103" fill="white"/>
</clipPath>
</defs>
</svg>
