<svg width="54" height="55" viewBox="0 0 54 55" fill="none" xmlns="http://www.w3.org/2000/svg">
<path d="M7.5418 26.3092C11.1853 26.3092 14.139 23.1551 14.139 19.2644C14.139 15.3736 11.1853 12.2195 7.5418 12.2195C3.89826 12.2195 0.94458 15.3736 0.94458 19.2644C0.94458 23.1551 3.89826 26.3092 7.5418 26.3092Z" fill="white"/>
<path d="M19.4168 15.0374C23.0603 15.0374 26.014 11.8833 26.014 7.9925C26.014 4.10173 23.0603 0.947632 19.4168 0.947632C15.7733 0.947632 12.8196 4.10173 12.8196 7.9925C12.8196 11.8833 15.7733 15.0374 19.4168 15.0374Z" fill="white"/>
<path d="M35.2501 15.0374C38.8936 15.0374 41.8473 11.8833 41.8473 7.9925C41.8473 4.10173 38.8936 0.947632 35.2501 0.947632C31.6065 0.947632 28.6528 4.10173 28.6528 7.9925C28.6528 11.8833 31.6065 15.0374 35.2501 15.0374Z" fill="white"/>
<path d="M47.1251 26.3092C50.7686 26.3092 53.7223 23.1551 53.7223 19.2644C53.7223 15.3736 50.7686 12.2195 47.1251 12.2195C43.4815 12.2195 40.5278 15.3736 40.5278 19.2644C40.5278 23.1551 43.4815 26.3092 47.1251 26.3092Z" fill="white"/>
<path d="M41.425 34.3685C39.1292 31.4942 37.2028 29.0426 34.8805 26.1683C33.6667 24.6466 32.1097 23.1249 30.2625 22.4486C29.9722 22.3359 29.6819 22.2514 29.3917 22.195C28.7319 22.0823 28.0194 22.0823 27.3333 22.0823C26.6472 22.0823 25.9347 22.0823 25.2486 22.2232C24.9583 22.2795 24.668 22.3641 24.3778 22.4768C22.5305 23.1531 21 24.6748 19.7597 26.1965C17.4639 29.0708 15.5375 31.5224 13.2153 34.3967C9.75832 38.0882 5.50971 42.1742 6.30137 47.8947C7.06665 50.769 8.99304 53.6151 12.45 54.4323C14.3764 54.855 20.525 53.1924 27.0694 53.1924H27.5444C34.0889 53.1924 40.2375 54.8268 42.1639 54.4323C45.6208 53.6151 47.5472 50.7408 48.3125 47.8947C49.1305 42.1461 44.8819 38.06 41.425 34.3685Z" fill="white"/>
</svg>
