<svg width="25" height="24" viewBox="0 0 25 24" fill="none" xmlns="http://www.w3.org/2000/svg">
<path d="M12.575 2C7.05501 2 2.57501 6.48 2.57501 12C2.57501 17.52 7.05501 22 12.575 22C18.095 22 22.575 17.52 22.575 12C22.575 6.48 18.095 2 12.575 2ZM12.575 5C14.235 5 15.575 6.34 15.575 8C15.575 9.66 14.235 11 12.575 11C10.915 11 9.57501 9.66 9.57501 8C9.57501 6.34 10.915 5 12.575 5ZM12.575 19.2C10.075 19.2 7.86501 17.92 6.57501 15.98C6.60501 13.99 10.575 12.9 12.575 12.9C14.565 12.9 18.545 13.99 18.575 15.98C17.285 17.92 15.075 19.2 12.575 19.2Z" fill="#424242"/>
</svg>
