<svg width="76" height="76" viewBox="0 0 76 76" fill="none" xmlns="http://www.w3.org/2000/svg">
<path d="M14.2499 37.9998C18.6222 37.9998 22.1666 34.4554 22.1666 30.0832C22.1666 25.7109 18.6222 22.1665 14.2499 22.1665C9.87766 22.1665 6.33325 25.7109 6.33325 30.0832C6.33325 34.4554 9.87766 37.9998 14.2499 37.9998Z" fill="#00ACC1"/>
<path d="M28.5002 25.3333C32.8724 25.3333 36.4168 21.7889 36.4168 17.4167C36.4168 13.0444 32.8724 9.5 28.5002 9.5C24.1279 9.5 20.5835 13.0444 20.5835 17.4167C20.5835 21.7889 24.1279 25.3333 28.5002 25.3333Z" fill="#00ACC1"/>
<path d="M47.4999 25.3333C51.8722 25.3333 55.4166 21.7889 55.4166 17.4167C55.4166 13.0444 51.8722 9.5 47.4999 9.5C43.1277 9.5 39.5833 13.0444 39.5833 17.4167C39.5833 21.7889 43.1277 25.3333 47.4999 25.3333Z" fill="#00ACC1"/>
<path d="M61.75 37.9998C66.1223 37.9998 69.6667 34.4554 69.6667 30.0832C69.6667 25.7109 66.1223 22.1665 61.75 22.1665C57.3778 22.1665 53.8334 25.7109 53.8334 30.0832C53.8334 34.4554 57.3778 37.9998 61.75 37.9998Z" fill="#00ACC1"/>
<path d="M54.9099 47.0567C52.1549 43.8267 49.8432 41.0717 47.0566 37.8417C45.5999 36.1317 43.7316 34.4217 41.5149 33.6617C41.1666 33.535 40.8182 33.44 40.4699 33.3767C39.6782 33.25 38.8232 33.25 37.9999 33.25C37.1766 33.25 36.3216 33.25 35.4982 33.4083C35.1499 33.4717 34.8016 33.5667 34.4532 33.6933C32.2366 34.4533 30.3999 36.1633 28.9116 37.8733C26.1566 41.1033 23.8449 43.8583 21.0582 47.0883C16.9099 51.2367 11.8116 55.8283 12.7616 62.2567C13.6799 65.4867 15.9916 68.685 20.1399 69.6033C22.4516 70.0783 29.8299 68.21 37.6832 68.21H38.2532C46.1066 68.21 53.4849 70.0467 55.7966 69.6033C59.9449 68.685 62.2566 65.455 63.1749 62.2567C64.1566 55.7967 59.0582 51.205 54.9099 47.0567Z" fill="#00ACC1"/>
</svg>
