<svg width="146" height="19" viewBox="0 0 146 19" fill="none" xmlns="http://www.w3.org/2000/svg">
<path d="M15.119 6.148C15.119 7.246 14.867 8.254 14.363 9.172C13.859 10.072 13.085 10.801 12.041 11.359C10.997 11.917 9.701 12.196 8.153 12.196H5.291V19H0.674V0.0460007H8.153C9.665 0.0460007 10.943 0.307001 11.987 0.829C13.031 1.351 13.814 2.071 14.336 2.989C14.858 3.907 15.119 4.96 15.119 6.148ZM7.802 8.524C8.684 8.524 9.341 8.317 9.773 7.903C10.205 7.489 10.421 6.904 10.421 6.148C10.421 5.392 10.205 4.807 9.773 4.393C9.341 3.979 8.684 3.772 7.802 3.772H5.291V8.524H7.802ZM22.1396 3.745V7.579H28.3226V11.143H22.1396V15.301H29.1326V19H17.5226V0.0460007H29.1326V3.745H22.1396ZM45.7651 0.0460007V3.745H40.7431V19H36.1261V3.745H31.1041V0.0460007H45.7651ZM74.1642 0.0460007L69.2232 19H63.6342L60.6102 6.526L57.4782 19H51.8892L47.0832 0.0460007H52.0242L54.7512 13.843L58.1262 0.0460007H63.2022L66.4422 13.843L69.1962 0.0460007H74.1642ZM81.0967 0.0460007V19H76.4797V0.0460007H81.0967ZM98.0775 0.0460007V3.745H93.0555V19H88.4385V3.745H83.4165V0.0460007H98.0775ZM114.03 0.0460007V3.745H109.008V19H104.391V3.745H99.3687V0.0460007H114.03ZM120.964 3.745V7.579H127.147V11.143H120.964V15.301H127.957V19H116.347V0.0460007H127.957V3.745H120.964ZM140.62 19L136.678 11.845H135.571V19H130.954V0.0460007H138.703C140.197 0.0460007 141.466 0.307001 142.51 0.829C143.572 1.351 144.364 2.071 144.886 2.989C145.408 3.889 145.669 4.897 145.669 6.013C145.669 7.273 145.309 8.398 144.589 9.388C143.887 10.378 142.843 11.08 141.457 11.494L145.831 19H140.62ZM135.571 8.578H138.433C139.279 8.578 139.909 8.371 140.323 7.957C140.755 7.543 140.971 6.958 140.971 6.202C140.971 5.482 140.755 4.915 140.323 4.501C139.909 4.087 139.279 3.88 138.433 3.88H135.571V8.578Z" fill="#00ACC1"/>
</svg>
