<svg width="278" height="37" viewBox="0 0 278 37" fill="none" xmlns="http://www.w3.org/2000/svg">
<path d="M27.7455 11.6526C27.7455 13.747 27.2648 15.6696 26.3035 17.4206C25.3422 19.1373 23.8658 20.5278 21.8745 21.5921C19.8832 22.6565 17.4112 23.1886 14.4585 23.1886H8.9995V36.1666H0.193V0.0136222H14.4585C17.3425 0.0136222 19.7802 0.511455 21.7715 1.50712C23.7628 2.50279 25.2563 3.87612 26.252 5.62712C27.2477 7.37812 27.7455 9.38662 27.7455 11.6526ZM13.789 16.1846C15.4713 16.1846 16.7245 15.7898 17.5485 15.0001C18.3725 14.2105 18.7845 13.0946 18.7845 11.6526C18.7845 10.2106 18.3725 9.09479 17.5485 8.30512C16.7245 7.51546 15.4713 7.12062 13.789 7.12062H8.9995V16.1846H13.789ZM41.1367 7.06912V14.3821H52.9302V21.1801H41.1367V29.1111H54.4752V36.1666H32.3302V0.0136222H54.4752V7.06912H41.1367ZM86.2 0.0136222V7.06912H76.621V36.1666H67.8145V7.06912H58.2355V0.0136222H86.2ZM140.369 0.0136222L130.944 36.1666H120.284L114.516 12.3736L108.542 36.1666H97.8813L88.7143 0.0136222H98.1388L103.34 26.3301L109.778 0.0136222H119.46L125.64 26.3301L130.893 0.0136222H140.369ZM153.592 0.0136222V36.1666H144.785V0.0136222H153.592ZM185.981 0.0136222V7.06912H176.402V36.1666H167.596V7.06912H158.017V0.0136222H185.981ZM216.409 0.0136222V7.06912H206.83V36.1666H198.023V7.06912H188.444V0.0136222H216.409ZM229.635 7.06912V14.3821H241.428V21.1801H229.635V29.1111H242.973V36.1666H220.828V0.0136222H242.973V7.06912H229.635ZM267.128 36.1666L259.609 22.5191H257.497V36.1666H248.691V0.0136222H263.471C266.321 0.0136222 268.741 0.511455 270.733 1.50712C272.758 2.50279 274.269 3.87612 275.265 5.62712C276.26 7.34379 276.758 9.26646 276.758 11.3951C276.758 13.7985 276.071 15.9443 274.698 17.8326C273.359 19.721 271.368 21.06 268.724 21.8496L277.067 36.1666H267.128ZM257.497 16.2876H262.956C264.57 16.2876 265.771 15.8928 266.561 15.1031C267.385 14.3135 267.797 13.1976 267.797 11.7556C267.797 10.3823 267.385 9.30079 266.561 8.51112C265.771 7.72146 264.57 7.32662 262.956 7.32662H257.497V16.2876Z" fill="white"/>
</svg>
