<svg width="21" height="20" viewBox="0 0 21 20" fill="none" xmlns="http://www.w3.org/2000/svg">
<path d="M10.575 0C5.05501 0 0.575012 4.48 0.575012 10C0.575012 15.52 5.05501 20 10.575 20C16.095 20 20.575 15.52 20.575 10C20.575 4.48 16.095 0 10.575 0ZM10.575 3C12.235 3 13.575 4.34 13.575 6C13.575 7.66 12.235 9 10.575 9C8.91501 9 7.57501 7.66 7.57501 6C7.57501 4.34 8.91501 3 10.575 3ZM10.575 17.2C8.07501 17.2 5.86501 15.92 4.57501 13.98C4.60501 11.99 8.57501 10.9 10.575 10.9C12.565 10.9 16.545 11.99 16.575 13.98C15.285 15.92 13.075 17.2 10.575 17.2Z" fill="#00ACC1"/>
</svg>
